<svg id="gl" height="40" viewBox="0 0 146 40" width="146" xmlns="http://www.w3.org/2000/svg"><path d="m145.853 18.369a19.888 19.888 0 0 1 -3.943 4.05 14.335 14.335 0 0 1 -5.541 3.1 3.332 3.332 0 0 1 -3.837-1.566 3.09 3.09 0 0 1 -.479-1.647 14.559 14.559 0 0 1 .319-1.62c.08-.54.88-2-.373-2.16a7.474 7.474 0 0 1 -2.557-1.08 8.593 8.593 0 0 1 -1.226 1.755l-.017.018c-.036.046-.073.09-.11.136a2.105 2.105 0 0 1 -.512.629 1.153 1.153 0 0 1 -.094.091 14.511 14.511 0 0 1 -4.888 3.851c-2.212.972-4.05 1.08-5.542.3a4.071 4.071 0 0 1 -2.173-2.995 24.015 24.015 0 0 1 -3.448 2.833c-2.452 1.647-4.61 2.052-6.5 1.215a3.866 3.866 0 0 1 -1.785-1.323c-.48-.567-.506-1-.107-1.35a.9.9 0 0 1 1.306.081 1.2 1.2 0 0 1 .213.108 3.777 3.777 0 0 0 .986.675.579.579 0 0 0 .746-.675 2.706 2.706 0 0 0 -1.359-1.485 20.738 20.738 0 0 1 -2.243-1.716 6.989 6.989 0 0 1 -3.189 2.123 7.6 7.6 0 0 1 -5.515-.513 3.457 3.457 0 0 1 -.16 1.647 3.54 3.54 0 0 1 -3.225 2.484 2.447 2.447 0 0 1 -2.318-1.863 7.819 7.819 0 0 1 -.315-1.789 25.781 25.781 0 0 1 -7.624 5.163 6.609 6.609 0 0 1 -8.685-2.673c-.158-.233-.358-.583-.591-1.031-.076.081-.148.157-.212.222a5.19 5.19 0 0 1 -5.408 1.536 6.71 6.71 0 0 1 -3.757-3.645 9.381 9.381 0 0 1 -.407-1.026 22.946 22.946 0 0 1 -4.389 3.833c-2.451 1.647-4.609 2.052-6.5 1.215a3.868 3.868 0 0 1 -1.785-1.323c-.48-.567-.506-1-.106-1.35a.9.9 0 0 1 1.305.081 1.206 1.206 0 0 1 .213.108 3.781 3.781 0 0 0 .986.675.579.579 0 0 0 .746-.675 2.705 2.705 0 0 0 -1.359-1.485 21.1 21.1 0 0 1 -2.218-1.694 21.124 21.124 0 0 1 -4.283 3.8c-2.158 1.486-3.863 1.975-5.115 1.486a3.855 3.855 0 0 1 -2.345-3.159c-.05-.319-.085-.625-.112-.92a13.63 13.63 0 0 1 -4.2 3.106c-2.211.972-4.05 1.08-5.542.3a4.065 4.065 0 0 1 -2.163-2.955c-.561.591-1.13 1.183-1.78 1.767a44.4 44.4 0 0 1 -4 3.294q-1.558 1.053-4.556 3a12.152 12.152 0 0 1 -.107 6.857 5.322 5.322 0 0 1 -3.543 3.753 2.665 2.665 0 0 1 -2.451-.783 5.214 5.214 0 0 1 -1.545-2.484c-.826-3.024.959-5.4 5.2-8.558a22.677 22.677 0 0 0 -1.976-4.318 15.406 15.406 0 0 0 -2-2.862c-.826-.918-1.332-1.242-1.492-1a2.272 2.272 0 0 0 -.107.324c0 .081-.186.972-.266 1.3-.027.162-.107.4-.187.756a5.587 5.587 0 0 1 -.639 1.512c-.48.918-1.465 1.188-2.771.243a5.135 5.135 0 0 1 -2.183-4.381c-.027-1.917.559-3.24 1.785-3.969a1.071 1.071 0 0 1 1.412.27.958.958 0 0 1 .29 1.323 4.181 4.181 0 0 0 -.773 4.212c.346.7.666.594.773.054.053-.405.373-1.971.426-2.376a4.07 4.07 0 0 1 1.092-1.944c.719-.729 1.705-.459 2.957.837a23.96 23.96 0 0 1 5.462 9.017c.186-.108.719-.459 1.625-1.08s1.705-1.161 2.371-1.674c.666-.486 1.492-1.134 2.478-1.917a28.555 28.555 0 0 0 4.793-5.158 2.882 2.882 0 0 1 1.655-1.564 3.149 3.149 0 0 1 3.33.891 2.7 2.7 0 0 1 .213 3.861 2.38 2.38 0 0 1 -1.359.837 3.55 3.55 0 0 1 -1.865-.513 2.332 2.332 0 0 0 .719 1.674c.586.405 1.519.378 2.771-.108a9.99 9.99 0 0 0 2.4-1.512 20.475 20.475 0 0 0 4.05-3.969c.007-.008.016-.012.024-.02a.922.922 0 0 1 1.335-.358 1.364 1.364 0 0 1 .746 1.431.434.434 0 0 1 -.107.324v.108c-.08.513-.08.594-.16 1.323a6.128 6.128 0 0 0 .053 1.728c.133 1.161.773 1.89 2.291 1.269a18.416 18.416 0 0 0 6.413-5.6c0-.015 0-.03.008-.045a1.576 1.576 0 0 1 1.439-1.215 1.432 1.432 0 0 1 1.519.945c.32.621.187 1-.426 1.107-.719-.027-.293.513 1.305 1.647.32.216.506.324.533.351a6.738 6.738 0 0 1 1.652 1.593 2.682 2.682 0 0 1 .639 1.836c1.991-.76 4.286-2.777 6.88-6.03a14.728 14.728 0 0 1 .393-3.824c-.533.054-2.291.162-2.8.216a1.029 1.029 0 0 1 -1.252-.81c-.213-.7-.027-1.107.559-1.242.879-.135 2.185-.3 3.916-.432.693-2.4 1.092-3.7 1.2-3.915.133-.351.506-.432 1.092-.243a1.126 1.126 0 0 1 .933.945 4.213 4.213 0 0 1 -.022 1.727 8.953 8.953 0 0 0 -.186 1.377h4.849a1.01 1.01 0 0 1 .9.491 25.886 25.886 0 0 1 .938-2.868c1.625-4.131 3.7-6.911 6.208-8.342a2.154 2.154 0 0 1 2.53.193 4.54 4.54 0 0 1 1.68 2.457 5.459 5.459 0 0 1 .053 2.862 12.411 12.411 0 0 1 -.959 2.97c-.533 1.08-.826 1.674-1.359 2.646-.266.513-.453.864-.559 1.08a32.247 32.247 0 0 1 -5.365 7.66l-.416.52c-.243.3-.468.581-.679.837a5.054 5.054 0 0 0 5.608 3.348 11.92 11.92 0 0 0 5.435-2.241 25.969 25.969 0 0 0 3.091-2.646l1.359-1.512c.128-.13.462-.545.8-.945a7.171 7.171 0 0 1 .347-.756 1.179 1.179 0 0 1 1.944.242.994.994 0 0 1 .08 1.134c-1.039 2.079-1.332 3.591-.879 4.59a.542.542 0 0 0 .933.216 1.923 1.923 0 0 0 .719-1.107 2.11 2.11 0 0 0 -.666-2.079.959.959 0 0 1 .053-1.512.872.872 0 0 1 1.252-.162 8.907 8.907 0 0 0 4.4 1.809c1.622.189 3.376-.807 4.893-2.958a1.573 1.573 0 0 1 1.421-1.173 1.433 1.433 0 0 1 1.519.945c.319.621.186 1-.427 1.107-.719-.027-.293.513 1.306 1.647.32.216.506.324.533.351a6.758 6.758 0 0 1 1.652 1.593 2.683 2.683 0 0 1 .639 1.836c1.936-.739 4.162-2.672 6.668-5.769a2.883 2.883 0 0 1 1.751-1.818 3.148 3.148 0 0 1 3.33.891 2.7 2.7 0 0 1 .213 3.861 2.38 2.38 0 0 1 -1.358.837 3.547 3.547 0 0 1 -1.865-.513 2.329 2.329 0 0 0 .719 1.674c.586.405 1.519.378 2.771-.108a10 10 0 0 0 2.4-1.512 20.786 20.786 0 0 0 3.767-3.623 9.017 9.017 0 0 0 .975-2.343 4.323 4.323 0 0 1 .201-1.593.906.906 0 0 1 1.252-.378 1.151 1.151 0 0 1 .879 1.215.35.35 0 0 1 -.053.216 2.021 2.021 0 0 1 -.053.486c.08.486.773.945 2.078 1.35a14.963 14.963 0 0 1 2.078.756 3.233 3.233 0 0 1 .8 2.943c-.08.513-.453 1.512-.532 1.863-.347 1.7.639 2.133 1.651 1.809a7.783 7.783 0 0 0 1.679-.81 22.813 22.813 0 0 0 6.261-5.912c.774-.892 2.373.43 1.813 1.537zm-133.664 12.122a17.4 17.4 0 0 0 -3.464 3.7 3.752 3.752 0 0 0 -.4 2.646 1.2 1.2 0 0 0 1.12 1.163c.932 0 1.705-.837 2.318-2.484a9.242 9.242 0 0 0 .426-5.025zm15.133-11.447c.346.459.666.432.933-.054a.776.776 0 0 0 0-.945.663.663 0 0 0 -.853-.054c-.56.216-.64.216-.08 1.053zm42.715-5.924a1.139 1.139 0 0 1 -.22.066h-.217a49.763 49.763 0 0 0 -5.062 0 24.881 24.881 0 0 1 -1.6 5.184 3.955 3.955 0 0 1 .107.837c.08.216.186.729.293.945a3 3 0 0 0 2.664 2.592q1.878.162 3.916-1.944c.052-.053.108-.115.162-.171-.022-.11-.045-.221-.055-.315a17.8 17.8 0 0 1 .012-7.194zm2.421 4.68c.3-.371.5-.63.626-.778a35.139 35.139 0 0 0 2.54-3.75 43.714 43.714 0 0 0 2.476-4.784c.213-.567.8-1.836 1.119-2.7a4.178 4.178 0 0 0 .293-1.3c.186-1.431-.133-2-.933-1.647a7.269 7.269 0 0 0 -2.289 2.218q-4.955 7.816-4.582 13.607c.254-.276.502-.574.75-.866zm45.342 1.244c.346.459.666.432.933-.054a.776.776 0 0 0 0-.945.664.664 0 0 0 -.853-.054c-.56.216-.64.216-.08 1.053zm-79.768-4.265a1.118 1.118 0 0 1 -1.465-.567c-.453-.621-.373-1.053.213-1.3.32-.108.986-.324 2-.621a1.191 1.191 0 0 1 1.412.837c.293.7.133 1.134-.48 1.269-.295.085-1.254.247-1.68.382z"/></svg>